<mxfile host="app.diagrams.net" modified="2024-02-09T01:54:00.301Z" agent="Mozilla/5.0 (X11; Ubuntu; Linux x86_64; rv:109.0) Gecko/20100101 Firefox/113.0" etag="CZCrRLqbc12p6c5sCgIi" version="23.1.2" type="device">
  <diagram name="Page-1" id="ikiXuWGvSe0iTieqGr9x">
    <mxGraphModel dx="429" dy="681" grid="1" gridSize="10" guides="1" tooltips="1" connect="1" arrows="1" fold="1" page="1" pageScale="1" pageWidth="850" pageHeight="1100" math="0" shadow="0">
      <root>
        <mxCell id="0" />
        <mxCell id="1" parent="0" />
        <mxCell id="EIxAyhyMSxFKWKZx9lwS-2" style="edgeStyle=none;curved=1;rounded=0;orthogonalLoop=1;jettySize=auto;html=1;exitX=0.5;exitY=1;exitDx=0;exitDy=0;fontSize=12;startSize=8;endSize=8;strokeWidth=2;" parent="1" source="EIxAyhyMSxFKWKZx9lwS-3" edge="1">
          <mxGeometry relative="1" as="geometry">
            <mxPoint x="445" y="190" as="targetPoint" />
          </mxGeometry>
        </mxCell>
        <mxCell id="_O4DlRPIcX2hAnp_LJax-4" value="" style="edgeStyle=orthogonalEdgeStyle;rounded=0;orthogonalLoop=1;jettySize=auto;html=1;exitX=0.5;exitY=1;exitDx=0;exitDy=0;strokeWidth=2;" edge="1" parent="1" source="_O4DlRPIcX2hAnp_LJax-1">
          <mxGeometry relative="1" as="geometry">
            <mxPoint x="445" y="270" as="targetPoint" />
          </mxGeometry>
        </mxCell>
        <mxCell id="EIxAyhyMSxFKWKZx9lwS-3" value="&lt;font style=&quot;font-size: 11px;&quot; face=&quot;Times New Roman&quot;&gt;SM_INIT&lt;/font&gt;" style="rounded=0;whiteSpace=wrap;html=1;fontSize=11;fillColor=#e1d5e7;strokeColor=#9673a6;" parent="1" vertex="1">
          <mxGeometry x="395" y="130" width="100" height="30" as="geometry" />
        </mxCell>
        <mxCell id="EIxAyhyMSxFKWKZx9lwS-4" value="&lt;font style=&quot;font-size: 11px;&quot; face=&quot;Times New Roman&quot;&gt;EST&lt;sub style=&quot;font-size: 11px;&quot;&gt;0&lt;/sub&gt;&lt;/font&gt;" style="ellipse;whiteSpace=wrap;html=1;aspect=fixed;fontSize=11;fillColor=#dae8fc;strokeColor=#6c8ebf;" parent="1" vertex="1">
          <mxGeometry x="347.5" y="100" width="30" height="30" as="geometry" />
        </mxCell>
        <mxCell id="EIxAyhyMSxFKWKZx9lwS-5" style="edgeStyle=none;curved=1;rounded=0;orthogonalLoop=1;jettySize=auto;html=1;fontSize=12;startSize=8;endSize=8;strokeWidth=2;entryX=0.5;entryY=0;entryDx=0;entryDy=0;" parent="1" source="EIxAyhyMSxFKWKZx9lwS-6" edge="1">
          <mxGeometry relative="1" as="geometry">
            <mxPoint x="445" y="330" as="targetPoint" />
          </mxGeometry>
        </mxCell>
        <mxCell id="EIxAyhyMSxFKWKZx9lwS-6" value="&lt;font style=&quot;font-size: 11px;&quot; face=&quot;Times New Roman&quot;&gt;SM_GO_HOME&lt;/font&gt;" style="rounded=0;whiteSpace=wrap;html=1;fontSize=11;fillColor=#e1d5e7;strokeColor=#9673a6;" parent="1" vertex="1">
          <mxGeometry x="395" y="270" width="100" height="30" as="geometry" />
        </mxCell>
        <mxCell id="EIxAyhyMSxFKWKZx9lwS-7" value="&lt;font style=&quot;font-size: 11px;&quot; face=&quot;Times New Roman&quot;&gt;EST&lt;sub style=&quot;font-size: 11px;&quot;&gt;1&lt;/sub&gt;&lt;/font&gt;" style="ellipse;whiteSpace=wrap;html=1;aspect=fixed;fontSize=11;fillColor=#dae8fc;strokeColor=#6c8ebf;" parent="1" vertex="1">
          <mxGeometry x="347.5" y="240" width="30" height="30" as="geometry" />
        </mxCell>
        <mxCell id="EIxAyhyMSxFKWKZx9lwS-8" style="edgeStyle=orthogonalEdgeStyle;rounded=0;orthogonalLoop=1;jettySize=auto;html=1;exitX=0;exitY=0.5;exitDx=0;exitDy=0;entryX=0.5;entryY=0;entryDx=0;entryDy=0;fontSize=12;startSize=8;endSize=8;strokeWidth=2;" parent="1" source="EIxAyhyMSxFKWKZx9lwS-10" target="EIxAyhyMSxFKWKZx9lwS-18" edge="1">
          <mxGeometry relative="1" as="geometry" />
        </mxCell>
        <mxCell id="EIxAyhyMSxFKWKZx9lwS-9" style="edgeStyle=orthogonalEdgeStyle;rounded=0;orthogonalLoop=1;jettySize=auto;html=1;entryX=0.5;entryY=0;entryDx=0;entryDy=0;fontSize=12;startSize=8;endSize=8;exitX=1;exitY=0.5;exitDx=0;exitDy=0;strokeWidth=2;" parent="1" source="EIxAyhyMSxFKWKZx9lwS-10" target="EIxAyhyMSxFKWKZx9lwS-19" edge="1">
          <mxGeometry relative="1" as="geometry" />
        </mxCell>
        <mxCell id="EIxAyhyMSxFKWKZx9lwS-10" value="error &amp;lt; umbral" style="rhombus;whiteSpace=wrap;html=1;fontSize=11;fillColor=#d5e8d4;strokeColor=#82b366;fontFamily=Times New Roman;" parent="1" vertex="1">
          <mxGeometry x="405" y="650" width="80" height="80" as="geometry" />
        </mxCell>
        <mxCell id="EIxAyhyMSxFKWKZx9lwS-11" value="1" style="text;html=1;strokeColor=none;fillColor=none;align=center;verticalAlign=middle;whiteSpace=wrap;rounded=0;fontSize=11;" parent="1" vertex="1">
          <mxGeometry x="382.5" y="660" width="22.5" height="20" as="geometry" />
        </mxCell>
        <mxCell id="EIxAyhyMSxFKWKZx9lwS-12" value="0" style="text;html=1;strokeColor=none;fillColor=none;align=center;verticalAlign=middle;whiteSpace=wrap;rounded=0;fontSize=11;" parent="1" vertex="1">
          <mxGeometry x="485" y="660" width="22.5" height="20" as="geometry" />
        </mxCell>
        <mxCell id="1Yo1BTJiKrGIlQ9grhWH-7" style="edgeStyle=orthogonalEdgeStyle;rounded=0;orthogonalLoop=1;jettySize=auto;html=1;exitX=0.5;exitY=1;exitDx=0;exitDy=0;entryX=0.5;entryY=0;entryDx=0;entryDy=0;strokeWidth=2;" parent="1" source="EIxAyhyMSxFKWKZx9lwS-15" target="1Yo1BTJiKrGIlQ9grhWH-1" edge="1">
          <mxGeometry relative="1" as="geometry" />
        </mxCell>
        <mxCell id="EIxAyhyMSxFKWKZx9lwS-15" value="&lt;div&gt;&lt;font style=&quot;font-size: 11px;&quot; face=&quot;Times New Roman&quot;&gt;SM_PATH_OR&lt;/font&gt;&lt;/div&gt;" style="rounded=0;whiteSpace=wrap;html=1;fontSize=11;fillColor=#e1d5e7;strokeColor=#9673a6;" parent="1" vertex="1">
          <mxGeometry x="395" y="400" width="100" height="30" as="geometry" />
        </mxCell>
        <mxCell id="EIxAyhyMSxFKWKZx9lwS-17" value="&lt;font style=&quot;font-size: 11px;&quot; face=&quot;Times New Roman&quot;&gt;EST&lt;sub&gt;2&lt;/sub&gt;&lt;/font&gt;" style="ellipse;whiteSpace=wrap;html=1;aspect=fixed;fontSize=11;fillColor=#dae8fc;strokeColor=#6c8ebf;" parent="1" vertex="1">
          <mxGeometry x="347.5" y="370" width="30" height="30" as="geometry" />
        </mxCell>
        <mxCell id="EIxAyhyMSxFKWKZx9lwS-18" value="moveAngle(+/- 0.1,100)" style="rounded=1;whiteSpace=wrap;html=1;fontSize=11;arcSize=60;fillColor=#fff2cc;strokeColor=#d6b656;fontFamily=Times New Roman;" parent="1" vertex="1">
          <mxGeometry x="280" y="740" width="150" height="30" as="geometry" />
        </mxCell>
        <mxCell id="EIxAyhyMSxFKWKZx9lwS-19" value="moveAngle(+/- 0.1,100)" style="rounded=1;whiteSpace=wrap;html=1;fontSize=11;arcSize=60;fillColor=#fff2cc;strokeColor=#d6b656;fontFamily=Times New Roman;" parent="1" vertex="1">
          <mxGeometry x="460" y="740" width="150" height="30" as="geometry" />
        </mxCell>
        <mxCell id="1Yo1BTJiKrGIlQ9grhWH-4" style="edgeStyle=orthogonalEdgeStyle;rounded=0;orthogonalLoop=1;jettySize=auto;html=1;exitX=0.5;exitY=1;exitDx=0;exitDy=0;entryX=0.5;entryY=0;entryDx=0;entryDy=0;strokeWidth=2;" parent="1" target="1Yo1BTJiKrGIlQ9grhWH-2" edge="1">
          <mxGeometry relative="1" as="geometry">
            <mxPoint x="445" y="490" as="sourcePoint" />
          </mxGeometry>
        </mxCell>
        <mxCell id="1Yo1BTJiKrGIlQ9grhWH-1" value="&lt;div&gt;navigate_to_location(M_Z72)&lt;/div&gt;" style="rounded=1;whiteSpace=wrap;html=1;fontSize=11;arcSize=60;fillColor=#fff2cc;strokeColor=#d6b656;fontFamily=Times New Roman;" parent="1" vertex="1">
          <mxGeometry x="361.25" y="460" width="167.5" height="40" as="geometry" />
        </mxCell>
        <mxCell id="1Yo1BTJiKrGIlQ9grhWH-10" style="edgeStyle=orthogonalEdgeStyle;rounded=0;orthogonalLoop=1;jettySize=auto;html=1;entryX=0.5;entryY=0;entryDx=0;entryDy=0;strokeWidth=2;" parent="1" source="1Yo1BTJiKrGIlQ9grhWH-2" target="1Yo1BTJiKrGIlQ9grhWH-9" edge="1">
          <mxGeometry relative="1" as="geometry" />
        </mxCell>
        <mxCell id="1Yo1BTJiKrGIlQ9grhWH-2" value="&lt;div&gt;&lt;font style=&quot;font-size: 11px;&quot; face=&quot;Times New Roman&quot;&gt;SM_GO_PIP&lt;/font&gt;&lt;/div&gt;" style="rounded=0;whiteSpace=wrap;html=1;fontSize=11;fillColor=#e1d5e7;strokeColor=#9673a6;" parent="1" vertex="1">
          <mxGeometry x="395" y="530" width="100" height="30" as="geometry" />
        </mxCell>
        <mxCell id="1Yo1BTJiKrGIlQ9grhWH-3" value="&lt;font style=&quot;font-size: 11px;&quot; face=&quot;Times New Roman&quot;&gt;EST&lt;sub&gt;2&lt;/sub&gt;&lt;/font&gt;" style="ellipse;whiteSpace=wrap;html=1;aspect=fixed;fontSize=11;fillColor=#dae8fc;strokeColor=#6c8ebf;" parent="1" vertex="1">
          <mxGeometry x="347.5" y="500" width="30" height="30" as="geometry" />
        </mxCell>
        <mxCell id="1Yo1BTJiKrGIlQ9grhWH-6" style="edgeStyle=orthogonalEdgeStyle;rounded=0;orthogonalLoop=1;jettySize=auto;html=1;exitX=0.5;exitY=1;exitDx=0;exitDy=0;strokeWidth=2;" parent="1" target="EIxAyhyMSxFKWKZx9lwS-15" edge="1">
          <mxGeometry relative="1" as="geometry">
            <mxPoint x="445" y="370" as="sourcePoint" />
          </mxGeometry>
        </mxCell>
        <mxCell id="1Yo1BTJiKrGIlQ9grhWH-9" value="navigate_to_location(pips_array[pip_cont])" style="rounded=1;whiteSpace=wrap;html=1;fontSize=11;arcSize=60;fillColor=#fff2cc;strokeColor=#d6b656;fontFamily=Times New Roman;" parent="1" vertex="1">
          <mxGeometry x="336.25" y="590" width="217.5" height="30" as="geometry" />
        </mxCell>
        <mxCell id="1Yo1BTJiKrGIlQ9grhWH-11" value="&lt;div&gt;navigate_to_location(M_Z51)&lt;/div&gt;" style="rounded=1;whiteSpace=wrap;html=1;fontSize=11;arcSize=60;fillColor=#fff2cc;strokeColor=#d6b656;fontFamily=Times New Roman;" parent="1" vertex="1">
          <mxGeometry x="361.25" y="330" width="167.5" height="40" as="geometry" />
        </mxCell>
        <mxCell id="_O4DlRPIcX2hAnp_LJax-1" value="pip_cont = 1&lt;br&gt;&lt;div&gt;pis_cont = 1&lt;br&gt;&lt;/div&gt;&lt;div&gt;mps_cont = 0&lt;br&gt;&lt;/div&gt;" style="rounded=1;whiteSpace=wrap;html=1;fontSize=11;arcSize=60;fillColor=#fff2cc;strokeColor=#d6b656;fontFamily=Times New Roman;" vertex="1" parent="1">
          <mxGeometry x="375.63" y="190" width="138.75" height="50" as="geometry" />
        </mxCell>
      </root>
    </mxGraphModel>
  </diagram>
</mxfile>
